# xmcd CD database file
#
# Track frame offsets:
#	150
#	26572
#	54347
#	78347
#	100745
#	107720
#	135920
#	159942
#	168012
#	195575
#	222915
#	231730
#	261352
#
# Disc length: 3720 seconds
#
# Revision: 0
# Processed by: cddbd v1.5.1PL0 Copyright (c) Steve Scherf et al.
# Submitted via: CDex 1.51
#
DISCID=a30e860d
DTITLE=Tatunane - Bongoland
DYEAR=1995
DGENRE=Jazz
TTITLE0=Kwetu
TTITLE1=Bongoland
TTITLE2=Filimbi II
TTITLE3=Mdundiko Dance
TTITLE4=Kolo
TTITLE5=Everybody Sing
TTITLE6=Amini
TTITLE7=Juma Ndala
TTITLE8=Mangaka Party
TTITLE9=Wema
TTITLE10=Lion
TTITLE11=Chei Chei
TTITLE12=Zumari
EXTD=YEAR: 1995
EXTT0=
EXTT1=
EXTT2=
EXTT3=
EXTT4=
EXTT5=
EXTT6=
EXTT7=
EXTT8=
EXTT9=
EXTT10=
EXTT11=
EXTT12=
PLAYORDER=
